# xmcd
#
# Track frame offsets: 
#        150
#        14704
#        26154
#        40807
#        60198
#        78164
#        95906
#        113004
#
# Disc length: 1776 seconds
#
# Revision: 0
# Processed by: cddbd v1.5.2PL0 Copyright (c) Steve Scherf et al.
# Submitted via: ExactAudioCopyFreeDBPlugin 1.0
#
DISCID=5d06ee08
DTITLE=Sydänyön Rytmi - Rakkaus lyö maahan
DYEAR=2017
DGENRE=Blues
TTITLE0=Jos sua on lyöty
TTITLE1=Rakkaus lyö maahan
TTITLE2=Enne kuin aurinko katoaa...
TTITLE3=Luoksein palaa
TTITLE4=Veljet and sisaret
TTITLE5=Miehen osa
TTITLE6=Elämä on miltä näyttää
TTITLE7=Upea nainen
EXTD=
EXTT0=
EXTT1=
EXTT2=
EXTT3=
EXTT4=
EXTT5=
EXTT6=
EXTT7=
PLAYORDER=
